<?xml version="1.0" standalone="no"?>
<!DOCTYPE svg PUBLIC "-//W3C//DTD SVG 20010904//EN"
 "http://www.w3.org/TR/2001/REC-SVG-20010904/DTD/svg10.dtd">
<svg version="1.0" xmlns="http://www.w3.org/2000/svg"
 width="260.000000pt" height="260.000000pt" viewBox="0 0 260.000000 260.000000"
 preserveAspectRatio="xMidYMid meet">
<metadata>
Created by potrace 1.14, written by Peter Selinger 2001-2017
</metadata>
<g transform="translate(0.000000,260.000000) scale(0.100000,-0.100000)"
fill="#000000" stroke="none">
<path d="M1178 2260 c-94 -23 -206 -82 -277 -147 -112 -101 -195 -261 -208
-401 -5 -54 -9 -65 -29 -72 -12 -5 -29 -19 -38 -32 -11 -15 -19 -19 -24 -12
-13 20 -91 54 -124 54 -79 0 -105 -56 -83 -177 4 -25 2 -33 -14 -38 -63 -20
-90 -90 -52 -136 18 -23 18 -24 -5 -59 -30 -43 -30 -69 -3 -104 57 -73 189
-97 304 -57 l53 19 10 -39 c8 -31 7 -39 -4 -39 -21 0 -17 -15 29 -114 41 -87
140 -220 190 -257 12 -9 55 -33 95 -54 40 -20 76 -45 80 -54 12 -23 7 -160 -6
-173 -6 -6 -21 -12 -34 -14 -72 -10 -91 -13 -96 -18 -3 -3 -12 0 -20 7 -9 7
-13 7 -9 1 3 -6 -5 -16 -19 -22 -29 -14 -46 -51 -32 -69 7 -9 7 -13 0 -13 -5
0 -15 7 -22 15 -7 8 -8 15 -3 15 5 0 9 9 10 19 2 19 -19 23 -34 6 -4 -4 -2 -5
5 -1 7 4 12 1 12 -8 0 -18 -11 -21 -26 -6 -7 7 -19 3 -37 -14 -14 -13 -29 -21
-32 -18 -3 4 -3 -2 1 -13 7 -18 8 -18 16 1 11 25 45 47 53 35 3 -5 -4 -12 -15
-16 -11 -3 -20 -14 -20 -23 0 -13 2 -13 15 4 13 17 16 17 26 4 9 -13 10 -12 5
3 -4 12 -2 17 6 14 7 -2 12 -11 10 -20 -1 -8 2 -18 8 -22 6 -3 7 0 4 10 -5 11
-2 14 10 9 9 -3 13 -11 9 -18 -4 -6 0 -6 9 2 9 7 19 9 22 4 3 -5 43 -10 88
-11 45 -1 85 -7 89 -12 4 -6 9 -3 13 8 7 16 9 16 26 -7 16 -21 18 -22 17 -5
-2 22 20 27 42 11 11 -9 13 -8 7 2 -6 10 -3 13 12 10 11 -2 29 6 41 16 12 11
21 16 21 11 0 -4 -8 -14 -17 -21 -15 -11 -12 -11 20 -2 20 6 37 15 37 20 0 4
-5 7 -11 6 -6 -2 -13 5 -14 15 -4 24 -15 35 -15 15 0 -9 -7 -18 -15 -22 -13
-4 -12 -1 2 20 13 21 14 27 3 34 -19 12 -26 160 -8 182 10 12 34 17 101 20 81
4 89 2 100 -16 14 -26 16 -99 4 -146 -4 -19 -9 -45 -10 -57 -4 -35 -23 -49
-43 -32 -9 8 -20 13 -23 12 -3 -1 -5 8 -3 20 3 24 0 22 -18 -12 -8 -15 -8 -21
-1 -17 6 4 11 3 11 -3 0 -5 -4 -13 -10 -16 -5 -3 -10 -1 -10 4 0 6 -3 10 -7 9
-5 -1 -19 4 -33 11 -25 14 -25 14 -7 -6 10 -11 17 -27 15 -34 -2 -8 7 -14 22
-16 14 -1 17 1 8 3 -10 3 -18 9 -18 14 0 5 7 7 15 4 8 -4 23 0 32 7 11 10 17
10 20 3 2 -6 10 -20 18 -30 13 -18 14 -17 8 6 -5 24 -5 25 11 5 13 -17 17 -18
26 -5 5 8 10 10 10 4 0 -5 19 -11 42 -13 23 -1 49 -7 57 -14 10 -8 12 -8 8 -1
-4 7 2 12 18 12 15 0 22 -5 18 -12 -3 -6 0 -6 8 1 17 17 89 17 89 1 0 -7 5 -5
11 5 10 18 12 18 32 0 18 -15 19 -15 8 -1 -11 16 -9 17 23 14 20 -2 39 0 42 5
3 5 10 9 15 9 6 0 7 -5 3 -12 -4 -7 -3 -8 5 -4 6 4 9 12 6 17 -4 5 -2 9 4 9 5
0 13 -5 16 -11 5 -7 14 -4 28 8 20 17 20 17 13 -1 -7 -20 -7 -20 15 0 11 10
23 18 25 17 12 -8 31 -1 41 17 9 14 10 21 1 26 -6 4 -8 3 -5 -3 9 -14 -15 -33
-49 -39 -25 -5 -26 -3 -13 13 13 17 13 17 -7 1 -23 -20 -45 -25 -26 -6 7 7 12
19 11 27 0 10 -4 7 -9 -6 -5 -13 -14 -23 -20 -23 -6 0 -9 4 -5 9 3 5 0 13 -6
17 -8 4 -9 3 -5 -4 4 -7 3 -12 -3 -12 -5 0 -11 6 -14 12 -2 7 -3 5 -2 -5 3
-19 -6 -22 -21 -7 -7 7 -11 6 -11 -4 0 -8 5 -12 11 -9 6 4 2 -3 -8 -15 -11
-12 -22 -20 -25 -17 -3 4 -1 9 4 13 13 9 15 52 3 52 -5 0 -7 4 -4 9 9 14 -62
37 -144 47 -19 3 -37 9 -40 15 -4 5 -6 46 -5 90 2 76 17 129 37 129 16 0 118
69 163 111 35 33 48 39 59 30 9 -7 22 -8 37 -3 18 7 27 5 39 -10 27 -33 65
-32 94 3 24 28 29 30 58 20 47 -17 79 -13 105 11 26 24 35 26 106 29 69 3 67
-2 83 274 3 66 8 123 10 126 11 20 -36 28 -169 31 -81 2 -147 6 -147 9 0 3 9
14 20 24 13 12 20 31 20 54 0 24 7 42 19 53 15 13 19 26 15 65 -6 80 -27 138
-50 141 -13 2 -27 18 -38 43 -13 29 -25 41 -44 45 -21 4 -27 12 -28 32 -3 128
-50 254 -135 363 -50 63 -51 64 -109 111 -53 43 -142 89 -220 113 -77 24 -245
27 -332 5z m322 -59 c197 -62 354 -230 398 -426 24 -102 25 -142 5 -164 -18
-22 -20 -25 -22 -62 -1 -17 -7 -12 -36 25 -60 78 -127 134 -218 181 -49 25
-95 45 -102 45 -11 0 -12 6 -6 23 6 14 6 30 0 38 -14 23 -10 35 15 47 34 15
51 71 36 117 -32 98 -205 109 -338 20 -73 -49 -106 -130 -77 -189 18 -36 19
-46 2 -46 -25 0 -142 -52 -192 -85 -56 -37 -96 -73 -143 -128 -17 -21 -33 -35
-33 -32 -1 3 -2 9 -3 15 0 5 -9 19 -20 31 -15 18 -17 32 -13 78 10 100 26 152
75 241 74 134 223 247 377 285 78 19 210 13 295 -14z m354 -1947 c9 -3 16 -11
16 -16 0 -6 -6 -5 -15 2 -12 10 -20 9 -42 -4 l-28 -17 24 20 c26 24 24 23 45
15z"/>
<path d="M821 356 c-9 -11 -9 -16 1 -22 7 -4 10 -4 6 1 -4 4 -3 14 3 22 6 7 9
13 6 13 -2 0 -10 -6 -16 -14z"/>
<path d="M1415 349 c-4 -6 -5 -12 -2 -15 2 -3 7 2 10 11 7 17 1 20 -8 4z"/>
<path d="M1290 339 c0 -5 5 -7 10 -4 6 3 10 8 10 11 0 2 -4 4 -10 4 -5 0 -10
-5 -10 -11z"/>
<path d="M2095 331 c-3 -5 -2 -12 3 -15 5 -3 9 1 9 9 0 17 -3 19 -12 6z"/>
<path d="M586 322 c-3 -5 1 -9 9 -9 8 0 12 4 9 9 -3 4 -7 8 -9 8 -2 0 -6 -4
-9 -8z"/>
<path d="M734 314 c5 -13 2 -15 -13 -11 -14 3 -18 1 -14 -9 4 -10 10 -11 24
-4 16 9 17 40 2 40 -3 0 -2 -7 1 -16z"/>
<path d="M1330 320 c-9 -6 -10 -10 -3 -10 6 0 15 5 18 10 8 12 4 12 -15 0z"/>
<path d="M2319 313 c-13 -16 -12 -17 4 -4 9 7 17 15 17 17 0 8 -8 3 -21 -13z"/>
<path d="M549 303 c-13 -16 -12 -17 4 -4 16 13 21 21 13 21 -2 0 -10 -8 -17
-17z"/>
<path d="M673 305 c0 -8 4 -12 9 -9 5 3 6 10 3 15 -9 13 -12 11 -12 -6z"/>
<path d="M772 315 c4 -4 -7 -19 -24 -32 -18 -12 -28 -23 -22 -23 5 1 22 11 38
24 21 18 25 25 15 31 -8 5 -11 5 -7 0z"/>
<path d="M1795 311 c-3 -5 -2 -12 3 -15 5 -3 9 1 9 9 0 17 -3 19 -12 6z"/>
<path d="M374 285 c0 -13 3 -22 7 -19 8 4 6 30 -2 38 -3 3 -5 -5 -5 -19z"/>
<path d="M1260 306 c0 -3 9 -10 20 -16 11 -6 20 -8 20 -6 0 3 -9 10 -20 16
-11 6 -20 8 -20 6z"/>
<path d="M1376 294 c-9 -8 -16 -18 -16 -21 0 -4 3 -3 7 0 3 4 12 2 20 -5 10
-8 17 -8 26 1 9 10 9 11 -4 6 -10 -4 -16 0 -16 10 0 9 6 14 14 11 8 -3 11 -1
8 4 -9 14 -21 12 -39 -6z"/>
<path d="M1907 299 c7 -7 15 -10 18 -7 3 3 -2 9 -12 12 -14 6 -15 5 -6 -5z"/>
<path d="M2135 300 c-3 -5 -3 -10 2 -10 4 0 1 -5 -7 -10 -11 -7 -11 -10 -2
-10 8 0 10 -5 6 -12 -4 -7 -3 -9 2 -5 4 4 9 19 10 32 1 27 -1 30 -11 15z"/>
<path d="M577 293 c-10 -9 -9 -23 1 -23 5 0 9 7 9 15 0 17 -1 18 -10 8z"/>
<path d="M620 279 c0 -11 -4 -18 -8 -15 -4 2 -14 0 -22 -5 -11 -7 -8 -8 10 -6
17 3 26 11 28 25 2 12 1 22 -2 22 -3 0 -6 -9 -6 -21z"/>
<path d="M650 291 c0 -10 19 -25 25 -20 1 2 -3 10 -11 17 -8 7 -14 8 -14 3z"/>
<path d="M1310 278 c0 -12 3 -18 7 -14 11 10 12 36 2 36 -5 0 -9 -10 -9 -22z"/>
<path d="M1936 285 c-3 -8 -1 -15 4 -15 6 0 10 7 10 15 0 8 -2 15 -4 15 -2 0
-6 -7 -10 -15z"/>
<path d="M2012 291 c-11 -6 -10 -10 4 -15 9 -4 22 -2 28 4 8 8 6 9 -8 4 -13
-5 -17 -4 -12 4 8 14 6 15 -12 3z"/>
<path d="M133 275 c0 -8 4 -12 9 -9 5 3 6 10 3 15 -9 13 -12 11 -12 -6z"/>
<path d="M304 282 c4 -3 14 -7 22 -8 9 -1 13 0 10 4 -4 3 -14 7 -22 8 -9 1
-13 0 -10 -4z"/>
<path d="M406 281 c-3 -5 1 -11 9 -14 9 -4 12 -1 8 9 -6 16 -10 17 -17 5z"/>
<path d="M475 280 c-3 -5 -1 -10 4 -10 6 0 11 5 11 10 0 6 -2 10 -4 10 -3 0
-8 -4 -11 -10z"/>
<path d="M2190 286 c0 -2 7 -7 16 -10 8 -3 12 -2 9 4 -6 10 -25 14 -25 6z"/>
<path d="M525 262 c-12 -8 -13 -37 -2 -49 5 -4 8 -3 7 2 -5 25 1 46 12 39 7
-4 8 -3 4 4 -8 14 -8 14 -21 4z"/>
<path d="M637 255 c-6 -13 -2 -54 6 -61 2 -2 3 14 3 36 0 44 -1 47 -9 25z"/>
<path d="M676 255 c-11 -8 -15 -15 -10 -15 6 0 19 7 30 15 10 8 15 14 9 14 -5
0 -19 -6 -29 -14z"/>
<path d="M1984 245 c-5 -22 -9 -24 -23 -13 -14 12 -14 11 -2 -4 15 -19 31 -15
31 8 0 8 5 14 10 14 6 0 10 5 10 10 0 21 -20 9 -26 -15z"/>
<path d="M2062 250 c7 -11 14 -16 16 -11 2 6 11 7 20 4 14 -4 14 -3 2 5 -8 6
-18 8 -22 6 -4 -3 -8 0 -8 5 0 6 -5 11 -10 11 -6 0 -5 -8 2 -20z"/>
<path d="M2151 247 c-13 -21 -12 -21 5 -5 10 10 16 20 13 22 -3 3 -11 -5 -18
-17z"/>
<path d="M2224 258 c-3 -4 5 -5 17 -3 30 6 36 14 9 12 -12 -1 -24 -5 -26 -9z"/>
<path d="M337 253 c-10 -9 -9 -23 1 -23 5 0 9 7 9 15 0 17 -1 18 -10 8z"/>
<path d="M450 256 c0 -2 8 -10 18 -17 15 -13 16 -12 3 4 -13 16 -21 21 -21 13z"/>
<path d="M2024 248 c-4 -7 -4 -10 1 -6 4 4 15 2 24 -5 14 -11 14 -10 2 6 -16
20 -18 21 -27 5z"/>
<path d="M387 239 c7 -7 15 -10 18 -7 3 3 -2 9 -12 12 -14 6 -15 5 -6 -5z"/>
<path d="M710 241 c0 -6 4 -13 10 -16 6 -3 7 1 4 9 -7 18 -14 21 -14 7z"/>
<path d="M2174 239 c-3 -6 -1 -16 5 -22 9 -9 11 -8 6 5 -4 11 0 18 12 21 15 4
16 5 1 6 -9 0 -20 -4 -24 -10z"/>
<path d="M2470 246 c0 -2 7 -7 16 -10 8 -3 12 -2 9 4 -6 10 -25 14 -25 6z"/>
<path d="M1356 233 c-11 -11 -7 -20 9 -20 8 0 15 4 15 8 0 11 -16 20 -24 12z"/>
<path d="M293 223 c4 -3 1 -13 -6 -22 -11 -14 -10 -14 5 -2 16 12 16 31 1 31
-4 0 -3 -3 0 -7z"/>
<path d="M586 218 c3 -4 9 -8 15 -8 5 0 9 4 9 8 0 5 -7 9 -15 9 -8 0 -12 -4
-9 -9z"/>
<path d="M666 218 c3 -4 11 -5 19 -1 21 7 19 12 -4 10 -11 0 -18 -5 -15 -9z"/>
<path d="M1916 222 c-2 -4 4 -8 14 -8 10 0 16 4 14 8 -3 4 -9 8 -14 8 -5 0
-11 -4 -14 -8z"/>
<path d="M2020 220 c-9 -6 -10 -10 -3 -10 6 0 15 5 18 10 8 12 4 12 -15 0z"/>
<path d="M2226 218 c3 -5 10 -6 15 -3 13 9 11 12 -6 12 -8 0 -12 -4 -9 -9z"/>
<path d="M433 207 c0 -8 6 -14 14 -14 9 0 10 4 2 14 -6 7 -12 13 -14 13 -1 0
-2 -6 -2 -13z"/>
<path d="M1265 210 c-4 -6 -11 -7 -17 -4 -7 4 -8 2 -4 -5 6 -8 12 -9 20 -2 7
6 17 7 21 3 5 -4 5 -1 1 6 -9 15 -13 15 -21 2z"/>
<path d="M385 200 c-3 -6 1 -7 9 -4 18 7 21 14 7 14 -6 0 -13 -4 -16 -10z"/>
<path d="M876 202 c-3 -5 1 -9 9 -9 8 0 12 4 9 9 -3 4 -7 8 -9 8 -2 0 -6 -4
-9 -8z"/>
<path d="M1846 198 c3 -5 10 -6 15 -3 13 9 11 12 -6 12 -8 0 -12 -4 -9 -9z"/>
</g>
</svg>
