<svg width="24" height="24" viewBox="0 0 24 24" fill="none" xmlns="http://www.w3.org/2000/svg">
<path fill-rule="evenodd" clip-rule="evenodd" d="M19.4398 10.208C19.427 10.0032 19.4782 9.87519 19.6478 9.74399C20.803 8.84159 21.0974 7.50399 20.4382 6.19519C20.1603 5.63738 19.7514 5.29008 19.3306 4.93272C19.0972 4.73452 18.8602 4.53322 18.6398 4.29119C18.3995 4.02569 18.1923 3.73319 17.9852 3.4409C17.6931 3.02863 17.4013 2.61676 17.0174 2.28159C16.1886 1.55839 15.1582 1.14879 14.067 1.05599C12.8958 0.956794 11.7182 0.988794 10.5534 1.18719C9.68302 1.33439 8.90863 1.68959 8.31023 2.35839C7.81103 2.91519 7.51342 3.58399 7.29583 4.29119C7.16143 4.73279 7.05903 5.18079 6.97903 5.63199C6.96737 5.69651 6.96156 5.78615 6.95505 5.88667C6.93475 6.19998 6.9076 6.61911 6.67502 6.71359C6.5052 6.78049 6.24526 6.76187 5.98196 6.74302C5.75409 6.72669 5.52369 6.71019 5.34702 6.74879C4.51182 6.93439 3.93902 7.40159 3.72462 8.26239C3.56462 8.90559 3.47182 9.55519 3.39822 10.2112C3.29262 11.184 3.22862 12.16 3.21902 13.1392C3.20622 14.224 3.23182 15.2992 3.44622 16.368C3.64462 17.3536 4.23022 17.9776 5.16142 18.3008C5.61582 18.4576 6.08622 18.528 6.56622 18.5248C6.67182 18.5248 6.70702 18.5504 6.71662 18.6624C6.77102 19.296 6.83823 19.9296 6.96303 20.5536C7.03343 20.9152 7.10702 21.28 7.30222 21.6C8.28782 23.2224 10.579 23.4208 11.9582 22.2016C12.3966 21.8176 12.5502 21.2512 12.6014 20.6432C12.6307 20.2966 12.6261 19.936 12.6216 19.5873C12.6173 19.2503 12.6131 18.9246 12.6398 18.6336C12.6555 18.4702 12.6558 18.4703 12.8132 18.5158L12.8222 18.5184C12.9037 18.5417 12.9774 18.5605 13.044 18.5774C13.4353 18.6772 13.5802 18.7142 13.5966 19.2256C13.6002 19.3323 13.6017 19.4391 13.6033 19.5458C13.6075 19.8261 13.6116 20.1059 13.651 20.384C13.763 21.1648 14.1278 21.8112 14.9214 22.048C16.0734 22.3904 18.3422 22.5344 18.6398 20.9344C18.723 20.48 18.803 20.0256 18.8766 19.568C19.0206 18.6944 19.139 17.8208 19.2542 16.944C19.3854 15.952 19.4974 14.9568 19.5166 13.9552C19.539 12.7072 19.5198 11.456 19.4398 10.208ZM17.571 9.45279C18.1374 9.24799 18.6718 8.98239 19.1038 8.54719C19.5038 8.14719 19.6222 7.66719 19.475 7.12639C19.299 6.48319 18.883 6.0224 18.339 5.664C17.4974 5.1072 16.5502 4.9344 15.5582 4.9536C14.5022 4.9728 13.5006 5.2416 12.515 5.5968C12.2526 5.6928 12.0926 5.856 11.9774 6.0896C11.9358 6.1696 11.8974 6.2496 11.8718 6.3328C11.5998 7.19039 11.7406 8.01919 12.1118 8.80959C12.2814 9.17119 12.627 9.36959 12.9854 9.52639C13.6286 9.80799 14.307 9.88799 14.7774 9.89119C15.8814 9.89119 16.7422 9.75039 17.571 9.45279Z" fill="black"/>
</svg>
