<svg width="24" height="24" viewBox="0 0 24 24" fill="none" xmlns="http://www.w3.org/2000/svg">
<path d="M15.4558 2.92901L16.5358 1.84901C16.6798 1.70501 16.6798 1.48901 16.5358 1.34501C16.3918 1.20101 16.1758 1.20101 16.0318 1.34501L14.8078 2.56901C14.0158 2.13701 13.0798 1.92101 11.9998 1.92101C10.9198 1.92101 9.98383 2.13701 9.19183 2.56901L7.96783 1.27301C7.82383 1.20101 7.53583 1.20101 7.39183 1.27301C7.24783 1.34501 7.24783 1.63301 7.39183 1.77701L8.47183 2.85701C7.24783 3.72101 6.52783 5.01701 6.52783 6.52901C6.59983 6.81701 6.74383 6.96101 6.95983 6.96101H17.0398C17.2558 6.96101 17.3998 6.81701 17.3998 6.60101C17.3998 6.52901 17.3998 6.52901 17.3998 6.52901C17.3998 5.01701 16.6078 3.72101 15.4558 2.92901ZM9.83983 4.80101C9.62383 4.80101 9.47983 4.65701 9.47983 4.44101C9.47983 4.22501 9.62383 4.08101 9.83983 4.08101C10.0558 4.08101 10.1998 4.22501 10.1998 4.44101C10.1998 4.65701 10.0558 4.80101 9.83983 4.80101ZM14.1598 4.80101C13.9438 4.80101 13.7998 4.65701 13.7998 4.44101C13.7998 4.22501 13.9438 4.08101 14.1598 4.08101C14.3758 4.08101 14.5198 4.22501 14.5198 4.44101C14.5198 4.65701 14.3758 4.80101 14.1598 4.80101Z" fill="black"/>
<path d="M17.0401 8.401H6.9601C6.7441 8.401 6.6001 8.545 6.6001 8.761V15.961C6.6001 16.825 7.2481 17.545 8.0401 17.689V21.361C8.0401 22.153 8.6881 22.801 9.4801 22.801C10.2721 22.801 10.9201 22.153 10.9201 21.361V17.761H13.0801V21.361C13.0801 22.153 13.7281 22.801 14.5201 22.801C15.3121 22.801 15.9601 22.153 15.9601 21.361V17.761C16.7521 17.617 17.4001 16.897 17.4001 16.033V8.833C17.4001 8.545 17.2561 8.401 17.0401 8.401Z" fill="black"/>
<path d="M4.08 8.401C3.504 8.401 3 8.905 3 9.481V15.961C3 16.537 3.504 17.041 4.08 17.041C4.656 17.041 5.16 16.537 5.16 15.961V9.481C5.16 8.905 4.656 8.401 4.08 8.401Z" fill="black"/>
<path d="M19.9198 8.401C19.3438 8.401 18.8398 8.905 18.8398 9.481V15.961C18.8398 16.537 19.3438 17.041 19.9198 17.041C20.4958 17.041 20.9998 16.537 20.9998 15.961V9.481C20.9998 8.905 20.4958 8.401 19.9198 8.401Z" fill="black"/>
</svg>
