<svg width="24" height="24" viewBox="0 0 24 24" fill="none" xmlns="http://www.w3.org/2000/svg">
<path d="M3.16643 8.20223C2.86786 8.20223 2.57021 8.31615 2.3433 8.54306C1.88947 8.99688 1.88947 9.73641 2.3433 10.1902L9.92232 17.7693C10.0454 17.8924 10.0886 18.0743 10.0335 18.2396C9.97836 18.405 9.83505 18.5244 9.66326 18.5492L5.05154 19.2079C4.23943 19.3237 3.62668 20.0301 3.62668 20.8505C3.62668 21.104 3.83246 21.3098 4.08601 21.3098H15.9635C17.0677 21.3098 18.1058 20.8799 18.8867 20.099L20.5109 18.4748C21.4709 17.5148 22.0001 16.2369 22.0001 14.8791C22.0001 13.5213 21.4709 12.2435 20.5109 11.2835L12.2576 3.03104C11.8038 2.57722 11.0642 2.57722 10.6104 3.03104C10.1566 3.48486 10.1566 4.22439 10.6104 4.67822L14.9741 9.0419C15.0641 9.13193 15.1082 9.24952 15.1082 9.36711C15.1082 9.4847 15.0632 9.60229 14.9741 9.69232C14.795 9.87146 14.5037 9.87146 14.3246 9.69232L8.5829 3.95063C8.14286 3.51059 7.37669 3.51059 6.93573 3.95063C6.48191 4.40445 6.48191 5.14398 6.93573 5.59781L12.6774 11.3395C12.7674 11.4295 12.8115 11.5471 12.8115 11.6647C12.8115 11.7823 12.7665 11.8999 12.6774 11.9899C12.4983 12.1691 12.2071 12.1691 12.0279 11.9899L5.13789 5.09989C4.68407 4.64606 3.94454 4.64606 3.49072 5.09989C3.03689 5.55371 3.03689 6.29324 3.49072 6.74706L10.3807 13.6371C10.4708 13.7271 10.5149 13.8447 10.5149 13.9623C10.5149 14.0799 10.4699 14.1975 10.3807 14.2875C10.2016 14.4666 9.91038 14.4666 9.73124 14.2875L3.98955 8.54582C3.76264 8.31615 3.46407 8.20223 3.16643 8.20223Z" fill="black"/>
</svg>
