<svg width="24" height="24" viewBox="0 0 24 24" fill="none" xmlns="http://www.w3.org/2000/svg">
<path d="M16.5854 8.66806C16.4396 8.66806 16.3021 8.6989 16.1687 8.7364V12.4184C16.1687 12.6484 15.982 12.8351 15.752 12.8351C15.522 12.8351 15.3353 12.6484 15.3353 12.4184V8.43221C15.0495 8.09801 14.6444 7.86883 14.1752 7.84382L14.8878 4.28019C14.9078 4.17768 14.9186 4.07351 14.9186 3.9685V3.58763C14.9186 2.71256 14.2069 2.00083 13.3318 2.00083C12.6026 2.00083 11.9692 2.49504 11.7925 3.2026L10.3799 8.85224L9.29731 3.43929C9.13063 2.60588 8.39223 2 7.54133 2C6.55375 2 5.75118 2.8034 5.75118 3.79015V3.94683C5.75118 4.06517 5.76285 4.18268 5.78618 4.29769L7.19463 11.3408L8.06387 10.7607C9.37232 9.889 11.0741 9.69148 12.5484 10.244L13.3085 10.529C14.2719 10.8907 14.9186 11.8242 14.9186 12.8526C14.9186 14.2202 13.806 15.3336 12.4376 15.3336C11.9525 15.3336 11.4967 15.5228 11.1541 15.8653L10.3849 16.6346C10.3032 16.7162 10.1966 16.7562 10.0899 16.7562C9.9832 16.7562 9.87653 16.7154 9.79485 16.6346C9.63234 16.4721 9.63234 16.2079 9.79485 16.0453L10.5641 15.2761C11.0641 14.7761 11.7292 14.5002 12.4367 14.5002C13.3452 14.5002 14.0844 13.761 14.0844 12.8526C14.0844 12.17 13.6543 11.55 13.0151 11.3099L12.2551 11.0249C11.0283 10.5657 9.61234 10.7299 8.52474 11.4541L7.60217 12.0692L7.05045 12.6092C6.21205 13.4476 5.74951 14.5627 5.74951 15.7495C5.74951 19.1964 8.55308 22 12 22C15.447 22 18.2506 19.1964 18.2506 15.7495V10.3324C18.2522 9.41562 17.5047 8.66806 16.5854 8.66806Z" fill="black"/>
</svg>
